<svg width="16" height="16" viewBox="0 0 16 16" fill="none" xmlns="http://www.w3.org/2000/svg">
<path fill-rule="evenodd" clip-rule="evenodd" d="M8 2.5C6.81163 2.49955 5.65507 2.88401 4.70347 3.59583C3.75187 4.30766 3.05642 5.30855 2.72123 6.44867C2.38604 7.5888 2.42914 8.80682 2.84408 9.9204C3.25901 11.034 4.02347 11.9832 5.023 12.626L5.813 10.055C5.41206 9.62841 5.14469 9.09384 5.04384 8.51715C4.943 7.94047 5.01309 7.34689 5.24547 6.80955C5.47786 6.27222 5.86238 5.81462 6.35166 5.49315C6.84093 5.17168 7.41357 5.00039 7.999 5.00039C8.58443 5.00039 9.15707 5.17168 9.64635 5.49315C10.1356 5.81462 10.5201 6.27222 10.7525 6.80955C10.9849 7.34689 11.055 7.94047 10.9542 8.51715C10.8533 9.09384 10.5859 9.62841 10.185 10.055L10.977 12.625C11.9761 11.982 12.7401 11.0328 13.1547 9.91946C13.5694 8.80608 13.6123 7.58837 13.2772 6.44853C12.942 5.3087 12.2468 4.30803 11.2955 3.59626C10.3443 2.88448 9.18808 2.49988 8 2.5ZM1 8C1.00026 6.73951 1.34087 5.50248 1.98587 4.41952C2.63086 3.33656 3.55631 2.44786 4.66449 1.84723C5.77268 1.24661 7.02248 0.956362 8.28194 1.00713C9.5414 1.0579 10.7638 1.4478 11.82 2.13567C12.8763 2.82354 13.7272 3.78386 14.2829 4.91522C14.8387 6.04658 15.0786 7.30701 14.9774 8.56342C14.8762 9.81984 14.4376 11.0256 13.708 12.0535C12.9784 13.0813 11.9847 13.893 10.832 14.403C10.7351 14.4458 10.6303 14.4676 10.5244 14.467C10.4185 14.4664 10.314 14.4434 10.2176 14.3995C10.1213 14.3556 10.0353 14.2917 9.96538 14.2122C9.89547 14.1326 9.8432 14.0392 9.812 13.938L8.612 10.037C8.566 9.88802 8.56758 9.72841 8.6165 9.58037C8.66543 9.43233 8.75928 9.30322 8.885 9.211C9.14048 9.02431 9.33037 8.76161 9.42753 8.46048C9.52469 8.15935 9.52414 7.83521 9.42595 7.53441C9.32776 7.23361 9.13696 6.97157 8.88085 6.78576C8.62473 6.59995 8.31642 6.49989 8 6.49989C7.68358 6.49989 7.37527 6.59995 7.11915 6.78576C6.86304 6.97157 6.67224 7.23361 6.57405 7.53441C6.47586 7.83521 6.47531 8.15935 6.57247 8.46048C6.66963 8.76161 6.85952 9.02431 7.115 9.211C7.24089 9.30309 7.33494 9.43214 7.38405 9.58019C7.43316 9.72824 7.43489 9.88792 7.389 10.037L6.189 13.938C6.15782 14.0393 6.10552 14.1329 6.03554 14.2125C5.96556 14.2922 5.8795 14.356 5.78302 14.4C5.68654 14.4439 5.58184 14.4669 5.47583 14.4674C5.36982 14.468 5.2649 14.446 5.168 14.403C3.92762 13.8543 2.87337 12.957 2.13343 11.8203C1.39349 10.6835 0.999718 9.35633 1 8Z" fill="white"/>
</svg>
